<svg xmlns="http://www.w3.org/2000/svg" xmlns:xlink="http://www.w3.org/1999/xlink" width="100" zoomAndPan="magnify" viewBox="0 0 75 66.75" height="89" preserveAspectRatio="xMidYMid meet" version="1.2"><defs><clipPath id="44a715aa75"><path d="M 68 23 L 74.859375 23 L 74.859375 38 L 68 38 Z M 68 23 "/></clipPath><clipPath id="cfe9b839c4"><path d="M 0.140625 20 L 21 20 L 21 42 L 0.140625 42 Z M 0.140625 20 "/></clipPath><clipPath id="dd20f90875"><path d="M 9 5 L 58 5 L 58 66.5 L 9 66.5 Z M 9 5 "/></clipPath></defs><g id="97f98cc5de"><g clip-rule="nonzero" clip-path="url(#44a715aa75)"><path style=" stroke:none;fill-rule:nonzero;fill:#fb6200;fill-opacity:1;" d="M 74.457031 30.8125 C 74.457031 30.382812 74.417969 29.953125 74.335938 29.527344 C 74.257812 29.101562 74.140625 28.6875 73.984375 28.285156 C 73.828125 27.878906 73.636719 27.492188 73.410156 27.125 C 73.1875 26.757812 72.929688 26.410156 72.640625 26.089844 C 72.351562 25.765625 72.035156 25.472656 71.691406 25.210938 C 71.347656 24.945312 70.984375 24.714844 70.597656 24.519531 C 70.214844 24.320312 69.816406 24.160156 69.402344 24.035156 C 68.984375 23.910156 68.5625 23.824219 68.132812 23.777344 L 68.132812 37.851562 C 68.5625 37.804688 68.984375 37.71875 69.398438 37.59375 C 69.816406 37.46875 70.214844 37.308594 70.597656 37.109375 C 70.984375 36.914062 71.347656 36.683594 71.691406 36.417969 C 72.035156 36.152344 72.351562 35.859375 72.640625 35.539062 C 72.929688 35.21875 73.1875 34.871094 73.410156 34.503906 C 73.636719 34.132812 73.828125 33.746094 73.984375 33.34375 C 74.140625 32.941406 74.257812 32.527344 74.335938 32.101562 C 74.417969 31.675781 74.457031 31.246094 74.457031 30.8125 Z M 74.457031 30.8125 "/></g><path style=" stroke:none;fill-rule:nonzero;fill:#fb6200;fill-opacity:1;" d="M 62.597656 61.648438 C 63.125 61.648438 63.628906 61.546875 64.113281 61.34375 C 64.59375 61.144531 65.023438 60.859375 65.394531 60.488281 C 65.765625 60.117188 66.050781 59.691406 66.25 59.207031 C 66.453125 58.722656 66.550781 58.21875 66.550781 57.695312 L 66.550781 3.933594 C 66.550781 3.671875 66.527344 3.417969 66.476562 3.160156 C 66.425781 2.90625 66.351562 2.660156 66.25 2.421875 C 66.152344 2.179688 66.03125 1.953125 65.886719 1.738281 C 65.742188 1.519531 65.578125 1.320312 65.394531 1.136719 C 65.210938 0.953125 65.011719 0.789062 64.796875 0.644531 C 64.578125 0.503906 64.351562 0.378906 64.113281 0.28125 C 63.871094 0.183594 63.625 0.105469 63.371094 0.0546875 C 63.117188 0.00390625 62.859375 -0.0195312 62.597656 -0.0195312 C 62.339844 -0.0195312 62.082031 0.00390625 61.828125 0.0546875 C 61.574219 0.105469 61.328125 0.183594 61.085938 0.28125 C 60.847656 0.378906 60.617188 0.503906 60.402344 0.644531 C 60.1875 0.789062 59.988281 0.953125 59.804688 1.136719 C 59.621094 1.320312 59.457031 1.519531 59.3125 1.738281 C 59.167969 1.953125 59.046875 2.179688 58.949219 2.421875 C 58.847656 2.660156 58.773438 2.90625 58.722656 3.160156 C 58.671875 3.417969 58.644531 3.671875 58.644531 3.933594 L 58.644531 57.695312 C 58.648438 58.21875 58.746094 58.722656 58.949219 59.207031 C 59.148438 59.691406 59.433594 60.117188 59.804688 60.488281 C 60.175781 60.859375 60.601562 61.144531 61.085938 61.34375 C 61.570312 61.546875 62.074219 61.648438 62.597656 61.648438 Z M 62.597656 61.648438 "/><g clip-rule="nonzero" clip-path="url(#cfe9b839c4)"><path style=" stroke:none;fill-rule:nonzero;fill:#fb6200;fill-opacity:1;" d="M 10.417969 41.09375 L 20.695312 41.09375 L 20.695312 20.535156 L 10.417969 20.535156 C 9.746094 20.535156 9.074219 20.601562 8.414062 20.734375 C 7.753906 20.863281 7.109375 21.058594 6.484375 21.320312 C 5.863281 21.578125 5.269531 21.894531 4.710938 22.269531 C 4.148438 22.644531 3.628906 23.070312 3.152344 23.546875 C 2.675781 24.023438 2.25 24.542969 1.875 25.105469 C 1.5 25.664062 1.183594 26.257812 0.921875 26.878906 C 0.664062 27.503906 0.46875 28.148438 0.339844 28.808594 C 0.207031 29.472656 0.140625 30.140625 0.140625 30.8125 C 0.140625 31.488281 0.207031 32.15625 0.339844 32.820312 C 0.46875 33.480469 0.664062 34.125 0.921875 34.746094 C 1.183594 35.371094 1.5 35.964844 1.875 36.523438 C 2.25 37.085938 2.675781 37.605469 3.152344 38.082031 C 3.628906 38.558594 4.148438 38.984375 4.710938 39.359375 C 5.269531 39.734375 5.863281 40.050781 6.484375 40.308594 C 7.109375 40.566406 7.753906 40.761719 8.414062 40.894531 C 9.074219 41.027344 9.746094 41.09375 10.417969 41.09375 Z M 10.417969 41.09375 "/></g><g clip-rule="nonzero" clip-path="url(#dd20f90875)"><path style=" stroke:none;fill-rule:nonzero;fill:#fb6200;fill-opacity:1;" d="M 30.78125 55.324219 L 24.035156 55.324219 L 20.871094 42.671875 L 10.417969 42.671875 C 10.226562 42.671875 10.035156 42.652344 9.84375 42.644531 L 15.332031 64.59375 C 15.394531 64.851562 15.5 65.089844 15.644531 65.3125 C 15.785156 65.535156 15.964844 65.726562 16.171875 65.890625 C 16.378906 66.050781 16.609375 66.175781 16.859375 66.261719 C 17.109375 66.347656 17.367188 66.390625 17.632812 66.390625 L 23.761719 66.390625 C 25.261719 66.429688 26.464844 64.886719 26.0625 63.445312 L 24.429688 56.902344 L 30.78125 56.902344 C 33.292969 56.964844 35.292969 54.398438 34.609375 51.960938 L 32.796875 45.757812 L 57.066406 55.914062 L 57.066406 5.714844 L 22.277344 20.273438 L 22.277344 41.355469 L 30.917969 44.972656 L 33.082031 52.375 C 33.484375 53.816406 32.28125 55.363281 30.78125 55.324219 Z M 30.78125 55.324219 "/></g></g></svg>