<svg xmlns="http://www.w3.org/2000/svg" xmlns:xlink="http://www.w3.org/1999/xlink" width="100" zoomAndPan="magnify" viewBox="0 0 75 54.75" height="73" preserveAspectRatio="xMidYMid meet" version="1.2"><defs><clipPath id="88de06da86"><path d="M 47 0.238281 L 55 0.238281 L 55 51 L 47 51 Z M 47 0.238281 "/></clipPath><clipPath id="66e6bc36d8"><path d="M 0.171875 16 L 17 16 L 17 34 L 0.171875 34 Z M 0.171875 16 "/></clipPath><clipPath id="dece1e3d72"><path d="M 65 24 L 74.828125 24 L 74.828125 26 L 65 26 Z M 65 24 "/></clipPath><clipPath id="4fdc16bc15"><path d="M 65 5 L 74.828125 5 L 74.828125 15 L 65 15 Z M 65 5 "/></clipPath><clipPath id="698adb556a"><path d="M 65 36 L 74.828125 36 L 74.828125 46 L 65 46 Z M 65 36 "/></clipPath><clipPath id="4d8db4b08b"><path d="M 8 4 L 47 4 L 47 53.992188 L 8 53.992188 Z M 8 4 "/></clipPath></defs><g id="3ba8d45ec1"><path style=" stroke:none;fill-rule:nonzero;fill:#fb6200;fill-opacity:1;" d="M 60.605469 25.296875 C 60.605469 24.945312 60.570312 24.59375 60.507812 24.25 C 60.441406 23.902344 60.347656 23.566406 60.21875 23.238281 C 60.09375 22.910156 59.9375 22.597656 59.753906 22.296875 C 59.570312 21.996094 59.359375 21.714844 59.125 21.453125 C 58.890625 21.191406 58.632812 20.953125 58.355469 20.738281 C 58.074219 20.523438 57.78125 20.335938 57.46875 20.175781 C 57.152344 20.015625 56.828125 19.882812 56.492188 19.785156 C 56.15625 19.683594 55.8125 19.613281 55.460938 19.574219 L 55.460938 31.019531 C 55.8125 30.980469 56.15625 30.910156 56.492188 30.808594 C 56.828125 30.707031 57.152344 30.578125 57.46875 30.417969 C 57.78125 30.253906 58.074219 30.066406 58.355469 29.851562 C 58.632812 29.636719 58.890625 29.398438 59.125 29.136719 C 59.359375 28.878906 59.570312 28.597656 59.753906 28.296875 C 59.9375 27.996094 60.09375 27.683594 60.21875 27.355469 C 60.347656 27.027344 60.441406 26.6875 60.507812 26.34375 C 60.570312 25.996094 60.605469 25.648438 60.605469 25.296875 Z M 60.605469 25.296875 "/><g clip-rule="nonzero" clip-path="url(#88de06da86)"><path style=" stroke:none;fill-rule:nonzero;fill:#fb6200;fill-opacity:1;" d="M 50.960938 50.371094 C 51.386719 50.371094 51.796875 50.289062 52.191406 50.125 C 52.585938 49.960938 52.933594 49.730469 53.234375 49.429688 C 53.535156 49.125 53.765625 48.777344 53.929688 48.386719 C 54.09375 47.992188 54.175781 47.582031 54.175781 47.15625 L 54.175781 3.4375 C 54.175781 3.011719 54.09375 2.601562 53.929688 2.207031 C 53.769531 1.8125 53.535156 1.464844 53.234375 1.164062 C 52.933594 0.863281 52.585938 0.628906 52.191406 0.464844 C 51.796875 0.304688 51.386719 0.222656 50.960938 0.222656 C 50.535156 0.222656 50.125 0.304688 49.730469 0.464844 C 49.335938 0.628906 48.988281 0.863281 48.6875 1.164062 C 48.386719 1.464844 48.15625 1.8125 47.992188 2.207031 C 47.828125 2.601562 47.746094 3.011719 47.746094 3.4375 L 47.746094 47.15625 C 47.746094 47.582031 47.828125 47.992188 47.992188 48.386719 C 48.15625 48.777344 48.386719 49.125 48.691406 49.429688 C 48.992188 49.730469 49.339844 49.960938 49.730469 50.125 C 50.125 50.289062 50.535156 50.371094 50.960938 50.371094 Z M 50.960938 50.371094 "/></g><g clip-rule="nonzero" clip-path="url(#66e6bc36d8)"><path style=" stroke:none;fill-rule:nonzero;fill:#fb6200;fill-opacity:1;" d="M 8.527344 33.652344 L 16.886719 33.652344 L 16.886719 16.9375 L 8.527344 16.9375 C 7.980469 16.9375 7.433594 16.992188 6.898438 17.097656 C 6.359375 17.207031 5.835938 17.363281 5.328125 17.574219 C 4.820312 17.785156 4.339844 18.042969 3.882812 18.347656 C 3.425781 18.652344 3.003906 18.996094 2.617188 19.386719 C 2.230469 19.773438 1.882812 20.195312 1.578125 20.652344 C 1.273438 21.109375 1.015625 21.589844 0.804688 22.097656 C 0.59375 22.605469 0.4375 23.128906 0.328125 23.664062 C 0.222656 24.203125 0.167969 24.746094 0.167969 25.296875 C 0.167969 25.84375 0.222656 26.386719 0.328125 26.925781 C 0.4375 27.464844 0.59375 27.988281 0.804688 28.496094 C 1.015625 29 1.273438 29.484375 1.578125 29.941406 C 1.882812 30.394531 2.230469 30.816406 2.617188 31.207031 C 3.003906 31.59375 3.429688 31.941406 3.882812 32.246094 C 4.339844 32.550781 4.820312 32.808594 5.328125 33.019531 C 5.835938 33.226562 6.359375 33.386719 6.898438 33.492188 C 7.433594 33.601562 7.980469 33.652344 8.527344 33.652344 Z M 8.527344 33.652344 "/></g><g clip-rule="nonzero" clip-path="url(#dece1e3d72)"><path style=" stroke:none;fill-rule:nonzero;fill:#fb6200;fill-opacity:1;" d="M 74.105469 24.652344 L 66.390625 24.652344 C 66.214844 24.652344 66.0625 24.714844 65.9375 24.839844 C 65.8125 24.96875 65.75 25.117188 65.75 25.296875 C 65.75 25.472656 65.8125 25.625 65.9375 25.75 C 66.0625 25.875 66.214844 25.9375 66.390625 25.9375 L 74.105469 25.9375 C 74.285156 25.9375 74.4375 25.875 74.5625 25.75 C 74.6875 25.625 74.75 25.472656 74.75 25.296875 C 74.75 25.117188 74.6875 24.96875 74.5625 24.839844 C 74.4375 24.714844 74.285156 24.652344 74.105469 24.652344 Z M 74.105469 24.652344 "/></g><g clip-rule="nonzero" clip-path="url(#4fdc16bc15)"><path style=" stroke:none;fill-rule:nonzero;fill:#fb6200;fill-opacity:1;" d="M 73.652344 5.554688 L 65.78125 13.425781 C 65.652344 13.550781 65.585938 13.703125 65.585938 13.882812 C 65.582031 14.0625 65.644531 14.214844 65.773438 14.339844 C 65.898438 14.46875 66.054688 14.53125 66.234375 14.53125 C 66.414062 14.527344 66.566406 14.460938 66.691406 14.332031 L 74.5625 6.460938 C 74.683594 6.335938 74.742188 6.1875 74.742188 6.011719 C 74.742188 5.835938 74.675781 5.683594 74.554688 5.5625 C 74.429688 5.4375 74.28125 5.375 74.105469 5.371094 C 73.929688 5.371094 73.777344 5.429688 73.652344 5.554688 Z M 73.652344 5.554688 "/></g><g clip-rule="nonzero" clip-path="url(#698adb556a)"><path style=" stroke:none;fill-rule:nonzero;fill:#fb6200;fill-opacity:1;" d="M 66.691406 36.257812 C 66.566406 36.128906 66.414062 36.0625 66.234375 36.0625 C 66.054688 36.058594 65.902344 36.125 65.773438 36.25 C 65.648438 36.378906 65.582031 36.53125 65.585938 36.710938 C 65.585938 36.890625 65.652344 37.042969 65.78125 37.167969 L 73.652344 45.039062 C 73.777344 45.160156 73.929688 45.21875 74.105469 45.21875 C 74.28125 45.21875 74.429688 45.15625 74.554688 45.03125 C 74.679688 44.90625 74.742188 44.757812 74.742188 44.582031 C 74.742188 44.40625 74.683594 44.253906 74.5625 44.128906 Z M 66.691406 36.257812 "/></g><g clip-rule="nonzero" clip-path="url(#4d8db4b08b)"><path style=" stroke:none;fill-rule:nonzero;fill:#fb6200;fill-opacity:1;" d="M 25.085938 45.226562 L 19.597656 45.226562 L 17.027344 34.941406 L 8.527344 34.941406 C 8.371094 34.941406 8.214844 34.925781 8.058594 34.917969 L 12.523438 52.765625 C 12.628906 53.195312 12.855469 53.546875 13.207031 53.820312 C 13.554688 54.09375 13.949219 54.230469 14.394531 54.226562 L 19.378906 54.226562 C 20.597656 54.261719 21.578125 53.003906 21.25 51.832031 L 19.921875 46.511719 L 25.085938 46.511719 C 27.128906 46.5625 28.753906 44.472656 28.199219 42.492188 L 26.726562 37.449219 L 46.460938 45.707031 L 46.460938 4.882812 L 18.171875 16.722656 L 18.171875 33.871094 L 25.199219 36.8125 L 26.957031 42.832031 C 27.285156 44.003906 26.304688 45.261719 25.085938 45.226562 Z M 25.085938 45.226562 "/></g></g></svg>